<?xml version="1.0" standalone="no"?>
<!DOCTYPE svg PUBLIC "-//W3C//DTD SVG 20010904//EN"
 "http://www.w3.org/TR/2001/REC-SVG-20010904/DTD/svg10.dtd">
<svg version="1.0" xmlns="http://www.w3.org/2000/svg"
 width="5000.000000pt" height="4378.000000pt" viewBox="0 0 5000.000000 4378.000000"
 preserveAspectRatio="xMidYMid meet">

<g transform="translate(0.000000,4378.000000) scale(0.100000,-0.100000)"
fill="#000000" stroke="none">
<path d="M15483 43759 c-397 -106 -1063 -554 -1718 -1153 -1784 -1633 -3341
-4129 -3626 -5811 -17 -101 -23 -173 -23 -320 -1 -104 3 -203 7 -219 l8 -28
71 7 c373 36 958 354 1528 830 297 248 718 656 986 955 1402 1563 2492 3499
2853 5065 53 234 91 490 91 622 l0 73 -52 -1 c-29 0 -86 -9 -125 -20z"/>
<path d="M34334 43539 c19 -293 86 -620 212 -1036 283 -938 803 -1995 1469
-2988 974 -1453 2078 -2595 3040 -3146 275 -158 612 -279 775 -279 45 0 46 4
56 160 17 267 -66 704 -222 1168 -647 1930 -2401 4325 -4109 5614 -480 361
-911 589 -1149 605 l-79 6 7 -104z"/>
<path d="M9522 43049 c-231 -132 -579 -644 -870 -1279 -627 -1367 -1024 -3059
-1133 -4820 -27 -422 -15 -1085 27 -1520 65 -688 221 -1263 413 -1528 l31 -42
58 36 c232 148 495 463 738 885 668 1160 1134 3009 1235 4899 15 277 15 972 0
1210 -45 722 -135 1297 -277 1775 -46 154 -151 416 -167 415 -1 0 -26 -14 -55
-31z"/>
<path d="M40376 42870 c-169 -370 -313 -1054 -370 -1765 -62 -755 -42 -1616
55 -2430 250 -2093 909 -3959 1666 -4720 87 -89 252 -215 279 -215 16 0 92
121 138 220 175 372 291 972 336 1727 22 376 11 1039 -26 1503 -152 1951 -741
3999 -1485 5168 -189 297 -405 533 -531 581 -25 9 -27 7 -62 -69z"/>
<path d="M6164 38782 c-200 -146 -445 -597 -654 -1208 -333 -974 -541 -2166
-600 -3439 -13 -298 -5 -1241 14 -1505 75 -1045 235 -1870 488 -2519 102 -261
245 -516 341 -609 l34 -33 49 39 c217 171 460 558 647 1027 313 787 509 1773
593 2990 21 311 30 1232 15 1561 -57 1229 -270 2357 -601 3189 -95 240 -249
535 -278 535 -5 0 -27 -13 -48 -28z"/>
<path d="M43730 38598 c-267 -434 -532 -1292 -684 -2219 -271 -1645 -201
-3629 179 -5124 224 -879 563 -1583 900 -1866 l70 -59 43 47 c65 72 148 201
218 338 289 572 505 1520 588 2590 54 689 47 1607 -19 2355 -148 1679 -596
3285 -1082 3882 -47 58 -138 138 -156 138 -3 0 -29 -37 -57 -82z"/>
<path d="M13951 37580 c-339 -47 -845 -263 -1426 -610 -2063 -1233 -4213
-3614 -4848 -5370 -84 -232 -141 -514 -129 -637 l3 -33 114 0 c675 0 1799 603
2925 1569 486 417 1083 1010 1501 1491 813 937 1419 1866 1806 2769 126 295
243 675 243 790 0 24 -4 31 -19 31 -10 0 -38 2 -62 4 -24 3 -73 0 -108 -4z"/>
<path d="M35683 37583 c-39 -4 -43 -7 -43 -31 0 -96 119 -478 234 -757 84
-201 306 -650 426 -860 581 -1015 1386 -2023 2338 -2928 843 -801 1639 -1389
2356 -1741 462 -226 831 -336 1135 -336 l114 0 -6 103 c-36 635 -624 1750
-1504 2849 -857 1069 -1944 2081 -3000 2791 -863 580 -1683 944 -2050 910z"/>
<path d="M1727 34268 c-30 -52 -61 -147 -81 -248 -56 -284 -46 -857 24 -1390
270 -2042 1300 -4528 2494 -6015 297 -371 623 -689 872 -852 88 -57 199 -113
225 -113 10 0 29 28 52 78 178 385 202 1073 66 1902 -264 1612 -1109 3646
-2101 5063 -428 610 -877 1122 -1252 1430 -106 87 -249 187 -267 187 -4 0 -19
-19 -32 -42z"/>
<path d="M48160 34131 c-335 -222 -805 -714 -1242 -1301 -888 -1194 -1677
-2859 -2097 -4425 -281 -1050 -360 -2013 -212 -2599 31 -122 96 -285 118 -293
19 -7 149 56 241 118 143 96 266 201 452 388 1374 1379 2670 4328 2929 6666
32 291 44 531 38 775 -6 252 -18 361 -53 500 -23 91 -77 220 -93 220 -4 0 -40
-22 -81 -49z"/>
<path d="M16727 33803 c-10 -10 -8 -1081 2 -1087 8 -5 1395 73 1594 90 l77 6
0 -588 c1 -2684 -22 -12987 -30 -13184 -20 -492 -96 -883 -222 -1134 -119
-238 -317 -470 -490 -574 -185 -111 -456 -176 -793 -191 l-140 -6 0 -410 0
-410 2288 -3 2287 -2 0 550 c0 302 -1 550 -2 550 -2 0 -405 -22 -897 -50 -492
-27 -896 -48 -898 -47 -2 2 4 98 12 213 44 622 44 1022 5 6529 -46 6466 -46
6425 -29 6425 14 0 155 -190 335 -450 55 -81 172 -236 259 -346 199 -250 -89
136 5523 -7404 l4738 -6365 602 -3 602 -2 0 62 c0 674 50 14137 55 14533 7
726 19 1059 45 1234 48 330 158 591 343 812 205 246 613 397 1147 427 l135 7
0 410 0 410 -2302 3 -2303 2 0 -544 c0 -300 4 -547 9 -550 4 -3 408 17 897 44
488 27 890 47 893 45 2 -3 -3 -139 -13 -303 -10 -163 -24 -407 -32 -542 -19
-317 -29 -2498 -39 -8178 -7 -3811 -9 -4223 -23 -4220 -18 4 -568 719 -806
1048 -129 178 -4087 5479 -9376 12558 l-480 642 -1483 0 c-816 0 -1487 -3
-1490 -7z"/>
<path d="M9595 31516 c-172 -55 -444 -271 -709 -561 -1366 -1496 -2620 -4365
-2855 -6530 -72 -662 -43 -1209 78 -1491 l23 -52 36 10 c69 17 277 126 372
193 719 509 1495 1635 2137 3104 545 1248 921 2597 1037 3731 35 331 40 449
41 805 0 387 -12 550 -53 725 -20 85 -30 91 -107 66z"/>
<path d="M40351 31377 c-51 -165 -83 -540 -75 -902 15 -680 121 -1406 324
-2216 305 -1214 875 -2600 1498 -3639 589 -983 1231 -1669 1731 -1851 62 -22
64 -22 78 -4 23 33 73 203 93 322 59 342 51 852 -21 1393 -134 1014 -482 2195
-984 3345 -540 1237 -1255 2371 -1949 3092 -235 244 -486 434 -633 476 l-52
16 -10 -32z"/>
<path d="M1612 28227 c-91 -195 -78 -657 34 -1232 252 -1281 889 -2814 1742
-4190 706 -1138 1555 -2107 2242 -2558 118 -77 318 -178 398 -200 l54 -15 15
36 c25 60 60 210 72 307 16 129 14 461 -4 633 -89 851 -438 1901 -1010 3037
-590 1170 -1264 2162 -2046 3010 -480 521 -1046 998 -1388 1169 l-89 45 -20
-42z"/>
<path d="M48290 28091 c-460 -233 -1149 -855 -1769 -1597 -900 -1077 -1746
-2538 -2241 -3869 -246 -663 -396 -1262 -445 -1785 -20 -208 -16 -524 9 -667
15 -89 57 -234 75 -262 13 -20 117 14 256 82 523 258 1251 973 1906 1872 815
1118 1540 2520 1961 3790 340 1028 489 1987 368 2378 -32 103 -32 103 -120 58z"/>
<path d="M7906 24195 c-213 -270 -396 -945 -481 -1770 -66 -646 -73 -1479 -20
-2190 142 -1869 632 -3681 1280 -4727 136 -218 293 -410 420 -511 l50 -39 56
62 c263 290 476 990 554 1815 52 556 52 1227 0 1875 -126 1565 -481 3036
-1024 4243 -231 512 -513 987 -718 1207 -33 36 -62 72 -65 80 -3 9 -20 -6 -52
-45z"/>
<path d="M41968 24022 c-491 -563 -1021 -1760 -1341 -3027 -361 -1427 -510
-3008 -402 -4250 44 -502 146 -1006 270 -1341 84 -226 219 -467 312 -556 l38
-37 70 58 c177 148 383 442 586 836 561 1090 959 2687 1084 4350 48 650 50
1393 4 1980 -64 827 -223 1541 -421 1896 -38 66 -115 170 -126 168 -4 0 -37
-35 -74 -77z"/>
<path d="M83 22263 c33 -411 518 -1222 1221 -2038 918 -1066 2156 -2104 3376
-2832 997 -594 1936 -952 2501 -953 64 0 131 3 148 6 29 6 31 9 31 53 0 25 -7
87 -15 136 -106 654 -797 1668 -1776 2606 -1431 1372 -3092 2429 -4570 2907
-339 110 -710 191 -873 192 l-49 0 6 -77z"/>
<path d="M49685 22184 c-715 -109 -1768 -543 -2740 -1129 -936 -564 -1854
-1284 -2646 -2075 -312 -312 -449 -461 -671 -726 -587 -706 -966 -1408 -995
-1846 l-6 -96 69 -7 c213 -23 551 35 939 162 1698 555 3947 2224 5320 3948
347 435 588 800 769 1166 124 249 185 437 186 567 l0 52 -67 -1 c-38 -1 -108
-7 -158 -15z"/>
<path d="M10309 17365 c-119 -268 -46 -961 187 -1784 420 -1486 1264 -3164
2323 -4621 833 -1146 1798 -2087 2501 -2438 130 -65 272 -118 334 -124 28 -3
31 0 48 55 44 145 53 229 53 527 -1 238 -4 312 -23 447 -140 1027 -618 2273
-1389 3622 -555 970 -1201 1873 -1867 2611 -655 726 -1354 1327 -1901 1638
-91 51 -219 112 -236 112 -6 0 -19 -20 -30 -45z"/>
<path d="M39615 17237 c-587 -264 -1501 -1052 -2295 -1977 -1141 -1330 -2189
-3119 -2694 -4599 -321 -940 -434 -1714 -324 -2221 28 -133 44 -170 74 -170
69 0 343 118 509 220 912 559 2023 1789 2936 3255 732 1173 1322 2433 1655
3535 221 729 330 1362 296 1728 -10 115 -42 255 -60 266 -4 2 -47 -14 -97 -37z"/>
<path d="M3622 16563 c-22 -4 -23 -8 -17 -61 29 -245 204 -596 516 -1029 667
-927 1743 -1952 2969 -2829 1610 -1152 3341 -1957 4533 -2109 140 -18 395 -20
502 -4 l77 12 -7 61 c-41 358 -334 915 -770 1461 -350 439 -844 939 -1375
1395 -773 663 -1772 1352 -2680 1850 -214 117 -661 343 -853 432 -1010 464
-2008 766 -2707 818 -139 10 -149 10 -188 3z"/>
<path d="M46075 16415 c-309 -34 -674 -113 -1085 -236 -1737 -515 -3699 -1656
-5290 -3073 -183 -164 -571 -547 -744 -736 -627 -684 -1032 -1340 -1121 -1813
-9 -48 -15 -102 -13 -120 3 -31 5 -32 68 -43 161 -29 469 -11 750 42 1630 308
3960 1627 5741 3251 1097 1000 1930 2089 2018 2640 16 103 16 103 -103 102
-55 -1 -155 -7 -221 -14z"/>
<path d="M15980 11660 c0 -291 305 -880 789 -1524 1373 -1829 3748 -3670 5806
-4503 370 -150 825 -286 1132 -339 161 -28 434 -42 513 -27 l45 9 -2 89 c-3
204 -99 496 -273 832 -587 1131 -1930 2485 -3620 3650 -1257 866 -2652 1527
-3771 1787 -175 41 -437 83 -546 88 l-73 4 0 -66z"/>
<path d="M33920 11583 c-143 -11 -469 -73 -680 -129 -1186 -315 -2565 -1002
-3837 -1912 -1058 -757 -1966 -1579 -2639 -2392 -432 -521 -768 -1062 -921
-1484 -57 -156 -103 -364 -103 -463 0 -38 3 -43 28 -50 15 -5 108 -8 207 -7
150 0 207 5 340 28 867 150 2047 683 3235 1461 1180 773 2314 1750 3177 2737
757 865 1289 1739 1296 2132 l2 81 -30 1 c-16 1 -50 -1 -75 -3z"/>
<path d="M6780 10973 c-1062 -19 -2173 -202 -2698 -444 l-84 -38 28 -51 c160
-294 807 -719 1672 -1096 1037 -453 2224 -794 3496 -1004 569 -94 1019 -146
1646 -191 238 -16 1047 -23 1300 -10 774 40 1404 149 1830 318 178 70 360 174
360 206 0 18 -93 152 -165 238 -80 95 -241 239 -400 359 -1170 876 -3459 1537
-5853 1690 -190 12 -801 31 -917 28 -44 -1 -141 -3 -215 -5z"/>
<path d="M42570 10838 c-3 -3 -95 -8 -205 -12 -1341 -44 -2998 -342 -4223
-761 -1241 -423 -2156 -982 -2471 -1507 l-22 -38 88 -57 c321 -209 978 -371
1773 -437 1815 -151 4237 211 6116 913 1190 444 2103 983 2328 1372 l26 46
-63 31 c-436 208 -1274 369 -2252 432 -170 11 -1087 26 -1095 18z"/>
<path d="M14600 7570 c-1992 -76 -3846 -488 -5095 -1134 -234 -121 -490 -286
-503 -324 -6 -18 103 -120 189 -177 226 -151 647 -318 1126 -446 2088 -559
5073 -520 7253 97 854 242 1530 558 1839 860 l74 72 -23 32 c-61 85 -283 246
-490 354 -682 355 -1699 577 -3005 656 -233 14 -1088 20 -1365 10z"/>
<path d="M34250 7433 c-1149 -50 -2105 -221 -2840 -508 -161 -63 -429 -199
-556 -284 -117 -77 -294 -231 -294 -255 0 -18 149 -157 242 -224 760 -549
2393 -999 4153 -1146 554 -46 797 -55 1505 -51 724 3 1032 20 1620 85 1185
133 2263 424 2750 742 69 45 200 166 200 185 0 6 -33 35 -72 65 -268 199 -729
427 -1261 622 -1180 434 -2585 694 -4127 765 -169 8 -1168 11 -1320 4z"/>
<path d="M20550 5543 c-469 -24 -662 -40 -1060 -84 -1377 -152 -2665 -460
-3795 -906 -680 -269 -1344 -618 -1748 -919 -126 -94 -277 -228 -277 -246 0
-17 71 -77 147 -125 311 -194 1003 -363 1813 -442 1498 -147 3261 -5 4945 399
1403 336 2708 906 3259 1422 103 96 206 213 206 234 0 6 -32 37 -72 68 -404
322 -1227 534 -2312 596 -156 9 -956 11 -1106 3z"/>
<path d="M28725 5413 c-1253 -23 -2263 -261 -2700 -636 l-39 -34 26 -41 c81
-122 279 -295 523 -457 1211 -804 3398 -1414 5625 -1570 518 -36 1176 -46
1633 -25 1241 58 2273 290 2545 573 l33 34 -68 63 c-229 211 -636 472 -1103
709 -1475 748 -3410 1231 -5450 1361 -160 10 -834 31 -875 28 -11 -1 -78 -3
-150 -5z"/>
<path d="M25075 4579 c-49 -60 -90 -114 -90 -118 0 -17 3410 -4211 3422 -4209
7 2 179 192 383 423 286 324 367 422 357 430 -7 5 -903 813 -1991 1795 -1088
982 -1981 1786 -1984 1787 -4 1 -47 -48 -97 -108z"/>
<path d="M22535 2960 c-1155 -940 -2101 -1713 -2102 -1717 -2 -8 814 -734 833
-740 8 -3 3512 3859 3585 3952 16 20 14 23 -87 113 -57 51 -109 94 -116 96 -7
3 -958 -765 -2113 -1704z"/>
</g>
</svg>
