<?xml version="1.0" standalone="no"?>
<!DOCTYPE svg PUBLIC "-//W3C//DTD SVG 20010904//EN"
 "http://www.w3.org/TR/2001/REC-SVG-20010904/DTD/svg10.dtd">
<svg version="1.0" xmlns="http://www.w3.org/2000/svg"
 width="5000.000000pt" height="4378.000000pt" viewBox="0 0 5000.000000 4378.000000"
 preserveAspectRatio="xMidYMid meet">

<g transform="translate(0.000000,4378.000000) scale(0.100000,-0.100000)"
fill="#000000" stroke="none">
<path d="M0 21890 l0 -21890 25000 0 25000 0 0 21890 0 21890 -17170 0 -17170
0 0 -73 c0 -407 -232 -1252 -545 -1981 -205 -477 -500 -1057 -740 -1451 -524
-863 -1044 -1569 -1659 -2255 -265 -296 -691 -708 -986 -955 -570 -476 -1155
-794 -1528 -830 l-71 -7 -8 28 c-4 16 -8 115 -7 219 0 148 5 219 23 320 227
1338 1273 3236 2650 4810 292 334 750 800 1041 1060 655 585 1276 995 1655
1095 68 18 -128 19 -7707 19 l-7778 1 0 -21890z m34580 21711 c675 -225 1807
-1165 2771 -2301 1275 -1503 2266 -3315 2493 -4560 45 -246 57 -496 29 -624
l-6 -29 -71 6 c-186 16 -480 126 -754 284 -1241 711 -2768 2486 -3763 4373
-519 985 -891 2063 -938 2724 -14 187 -21 170 68 163 47 -3 114 -17 171 -36z
m-24955 -613 c162 -348 309 -1041 370 -1738 39 -461 50 -1112 26 -1575 -68
-1278 -311 -2581 -678 -3640 -362 -1043 -856 -1859 -1295 -2139 l-58 -36 -31
42 c-223 308 -382 976 -440 1853 -16 233 -16 922 0 1185 85 1458 383 2910 856
4165 322 853 702 1542 1019 1843 59 56 164 131 184 132 2 0 23 -42 47 -92z
m30899 -102 c343 -246 808 -1067 1164 -2056 423 -1175 679 -2438 784 -3860 18
-238 18 -1218 0 -1435 -56 -697 -169 -1235 -328 -1575 -46 -99 -122 -220 -138
-220 -27 0 -192 126 -279 215 -546 548 -1053 1686 -1381 3095 -395 1700 -483
3423 -246 4810 72 420 170 778 276 1010 35 76 37 78 62 69 14 -6 53 -29 86
-53z m-34258 -4147 c126 -195 299 -622 419 -1037 223 -766 357 -1625 405
-2591 13 -262 13 -1023 0 -1301 -61 -1311 -268 -2422 -610 -3281 -187 -468
-427 -850 -644 -1021 l-49 -39 -34 33 c-96 93 -239 348 -341 609 -483 1235
-640 3233 -407 5164 166 1372 537 2647 954 3275 81 122 215 260 253 260 4 0
29 -32 54 -71z m37574 -94 c229 -168 530 -798 755 -1580 264 -921 427 -1994
476 -3130 13 -307 7 -1170 -10 -1415 -63 -891 -180 -1594 -366 -2195 -129
-416 -304 -780 -457 -948 l-43 -47 -70 59 c-156 131 -324 370 -475 676 -114
231 -172 373 -265 645 -416 1222 -590 2993 -460 4670 87 1115 328 2194 651
2918 76 169 194 382 211 382 3 0 27 -16 53 -35z m-29721 -1065 c23 0 24 -2 17
-62 -38 -365 -392 -1175 -814 -1863 -527 -860 -1165 -1651 -1994 -2471 -481
-476 -864 -811 -1326 -1156 -440 -331 -805 -559 -1217 -763 -444 -220 -771
-320 -1082 -332 l-152 -6 -3 34 c-12 126 45 406 129 639 584 1615 2467 3789
4406 5088 663 444 1263 747 1699 858 111 28 227 44 278 38 19 -2 46 -4 59 -4z
m21826 -21 c414 -84 1108 -428 1788 -887 1262 -850 2511 -2072 3429 -3357 641
-898 1077 -1838 1078 -2324 l0 -64 -152 6 c-311 11 -636 109 -1093 333 -1190
581 -2709 1919 -3826 3369 -312 404 -599 834 -856 1280 -130 224 -351 668
-439 880 -115 279 -234 661 -234 757 0 24 4 27 43 31 65 6 152 -2 262 -24z
m-34104 -3297 c326 -214 792 -700 1224 -1277 653 -874 1183 -1848 1650 -3034
602 -1530 863 -2964 705 -3868 -34 -191 -123 -433 -159 -433 -26 0 -137 56
-225 113 -466 305 -1061 1013 -1588 1892 -1078 1799 -1838 4213 -1838 5836 0
322 19 504 71 669 22 68 64 150 78 150 5 0 42 -22 82 -48z m46438 -144 c38
-78 75 -221 93 -359 20 -156 16 -687 -6 -914 -96 -993 -369 -2091 -791 -3190
-441 -1148 -984 -2165 -1585 -2971 -341 -457 -726 -855 -1015 -1048 -91 -61
-230 -130 -248 -123 -22 8 -86 169 -118 293 -134 533 -79 1408 148 2344 312
1287 917 2735 1621 3880 516 839 1134 1593 1629 1988 85 68 221 162 234 162 4
0 22 -28 38 -62z m-27817 -1328 c417 -558 911 -1220 1098 -1470 187 -250 759
-1015 1270 -1700 511 -685 1069 -1432 1240 -1660 380 -509 3112 -4166 4429
-5930 532 -712 1024 -1374 1094 -1470 209 -291 752 -995 770 -998 16 -3 17 89
17 1355 0 2330 19 10132 25 10458 6 306 18 574 51 1138 10 158 15 289 12 292
-2 3 -407 -18 -898 -45 -492 -28 -894 -50 -895 -50 0 0 0 248 0 550 l0 550
2297 -2 2298 -3 1 -410 1 -410 -63 -2 c-227 -9 -519 -55 -693 -110 -203 -63
-417 -195 -523 -322 -185 -221 -295 -482 -343 -812 -26 -175 -38 -508 -45
-1234 -5 -394 -55 -13867 -55 -14538 l0 -57 -602 2 -602 3 -1753 2355 c-964
1295 -1984 2666 -2266 3045 -459 616 -1728 2321 -3652 4905 -358 481 -1026
1379 -1485 1995 -865 1163 -996 1336 -1165 1545 -56 69 -141 184 -190 255
-136 201 -338 475 -349 475 -11 0 -8 -437 34 -6435 39 -5518 39 -5907 -5
-6529 -8 -115 -14 -211 -12 -213 2 -1 406 20 898 47 492 28 895 50 897 50 1 0
2 -248 2 -550 l0 -550 -2285 2 -2285 3 -1 410 -2 410 144 6 c330 15 604 82
787 191 173 104 371 336 490 574 126 251 202 640 222 1134 8 197 31 10524 30
13194 l0 578 -72 -6 c-53 -5 -1576 -96 -1600 -96 -2 0 0 1032 2 1098 0 1 669
1 1487 0 l1487 -3 758 -1015z m-10760 -1340 c68 -293 75 -903 18 -1480 -139
-1376 -616 -2953 -1330 -4395 -402 -810 -820 -1456 -1269 -1959 -326 -364
-654 -618 -921 -712 l-65 -23 -12 22 c-28 49 -74 215 -93 330 -173 1070 237
2972 1025 4757 676 1529 1604 2896 2310 3402 108 77 245 140 295 135 22 -2 26
-10 42 -77z m30837 -113 c410 -230 1031 -953 1586 -1847 963 -1551 1696 -3575
1874 -5175 63 -560 51 -1072 -30 -1378 -26 -97 -64 -187 -78 -187 -18 0 -133
46 -201 80 -281 141 -648 479 -991 910 -936 1179 -1828 3195 -2208 4987 -224
1058 -281 2122 -140 2645 l9 37 53 -15 c28 -9 86 -34 126 -57z m-38581 -3256
c645 -434 1438 -1264 2094 -2191 272 -385 529 -792 771 -1222 761 -1353 1237
-2650 1342 -3660 18 -172 20 -504 4 -633 -12 -97 -47 -247 -72 -307 l-15 -36
-54 15 c-80 22 -280 123 -398 200 -673 442 -1500 1379 -2202 2493 -861 1369
-1531 2968 -1782 4255 -112 578 -125 1037 -34 1232 l20 42 89 -45 c49 -24 155
-89 237 -143z m46452 -50 c77 -247 40 -783 -95 -1398 -336 -1523 -1197 -3352
-2262 -4806 -720 -983 -1552 -1756 -2056 -1909 -81 -24 -76 -28 -112 85 -82
256 -85 695 -9 1160 259 1581 1351 3782 2645 5331 620 742 1309 1364 1769
1597 88 45 88 45 120 -60z m-40387 -3870 c294 -316 680 -1043 978 -1843 649
-1741 950 -4102 733 -5748 -93 -709 -288 -1287 -520 -1548 -67 -75 -59 -77
-192 52 -363 351 -763 1150 -1056 2111 -313 1024 -491 2036 -578 3290 -18 248
-17 1281 0 1520 80 1089 266 1881 518 2200 32 39 49 54 52 45 3 -8 32 -44 65
-79z m34070 -118 c230 -289 425 -1081 497 -2013 45 -584 43 -1335 -5 -1975
-124 -1643 -510 -3207 -1063 -4312 -207 -412 -449 -754 -638 -901 l-42 -32
-46 50 c-183 196 -355 612 -459 1116 -92 437 -134 866 -144 1449 -21 1265 185
2758 554 4010 327 1110 791 2093 1221 2587 37 42 70 77 74 77 3 1 27 -24 51
-56z m-41718 -1733 c389 -68 966 -262 1515 -511 1301 -588 2697 -1575 3830
-2709 742 -741 1274 -1470 1513 -2070 77 -194 127 -398 127 -522 l0 -47 -46
-7 c-76 -11 -320 3 -447 25 -1066 192 -2656 1081 -4057 2270 -1124 954 -2085
2073 -2524 2940 -130 256 -191 432 -203 585 l-6 79 89 -6 c49 -4 143 -16 209
-27z m49535 -159 c0 -135 -65 -328 -200 -596 -478 -950 -1541 -2154 -2801
-3171 -1125 -908 -2312 -1604 -3274 -1917 -389 -127 -726 -185 -939 -162 l-69
7 6 96 c22 338 266 862 653 1402 576 805 1466 1679 2511 2468 1017 767 2092
1360 3072 1693 400 136 781 225 974 228 l67 1 0 -49z m-39485 -4776 c231 -105
603 -359 950 -647 1051 -873 2102 -2172 2947 -3643 783 -1364 1270 -2625 1410
-3655 19 -138 22 -211 23 -450 0 -298 -8 -376 -53 -525 -18 -57 -20 -60 -48
-57 -160 16 -519 205 -843 444 -724 535 -1574 1482 -2322 2588 -1184 1749
-2059 3820 -2221 5255 -17 158 -15 461 5 557 17 85 50 168 66 168 5 0 44 -16
86 -35z m29314 -170 c134 -432 -81 -1523 -531 -2705 -580 -1518 -1532 -3150
-2553 -4375 -784 -940 -1615 -1641 -2163 -1824 -114 -38 -135 -39 -150 -6 -16
36 -48 166 -64 260 -19 120 -16 505 6 690 152 1280 891 2996 2001 4650 891
1326 1997 2502 2930 3114 199 131 476 278 497 265 4 -3 16 -34 27 -69z
m-35864 -650 c181 -14 507 -72 777 -140 1078 -270 2287 -809 3463 -1543 667
-416 1388 -943 1935 -1412 534 -458 1024 -956 1375 -1395 435 -545 729 -1103
770 -1461 l7 -62 -88 -12 c-122 -17 -431 -7 -594 19 -1416 229 -3395 1241
-5125 2620 -1169 932 -2146 1989 -2594 2807 -115 209 -178 383 -195 531 -6 48
-4 52 17 55 26 5 138 1 252 -7z m42527 -147 c18 -124 -96 -418 -282 -723 -408
-674 -1192 -1539 -2094 -2312 -1766 -1513 -3963 -2699 -5471 -2952 -244 -41
-521 -53 -665 -27 -63 11 -65 12 -68 43 -5 50 25 194 67 322 142 431 493 971
1010 1550 151 170 650 663 846 837 1237 1096 2753 2059 4170 2649 903 376
1845 627 2382 634 98 1 102 0 105 -21z m-30112 -4713 c673 -102 1691 -476
2603 -956 1945 -1024 3867 -2646 4814 -4064 337 -506 551 -1009 556 -1310 l2
-89 -55 -9 c-30 -5 -122 -6 -205 -3 -275 9 -593 78 -1020 220 -381 128 -654
241 -1090 455 -1830 896 -3807 2496 -5027 4068 -533 686 -867 1299 -885 1623
l-6 96 104 -8 c57 -4 151 -14 209 -23z m17734 -190 c-5 -387 -543 -1271 -1297
-2133 -306 -350 -788 -841 -1137 -1157 -1325 -1200 -2862 -2198 -4190 -2720
-430 -170 -791 -274 -1145 -331 -115 -19 -434 -26 -487 -11 -25 7 -28 12 -28
50 0 23 6 81 14 128 73 447 392 1043 905 1689 648 817 1552 1655 2646 2451
1291 941 2719 1660 3935 1983 277 74 642 137 755 132 l30 -1 -1 -80z m-26419
-540 c1231 -53 2511 -254 3632 -570 1482 -419 2647 -1049 3045 -1648 26 -40
48 -77 48 -84 0 -31 -186 -138 -360 -206 -423 -168 -1046 -276 -1820 -317
-219 -12 -882 -11 -1125 1 -1858 91 -3839 542 -5376 1224 -848 377 -1466 786
-1623 1075 l-28 51 88 40 c125 58 378 140 594 193 799 196 1879 285 2925 241z
m35855 -136 c1002 -43 1960 -212 2428 -429 l92 -43 -26 -46 c-203 -352 -1006
-849 -2038 -1261 -1521 -607 -3349 -983 -5101 -1050 -1334 -51 -2577 136
-3078 463 l-88 57 22 38 c84 140 236 308 408 452 580 485 1549 931 2745 1265
1087 303 2468 517 3556 552 107 3 197 7 199 10 8 6 686 0 881 -8z m-27765
-3259 c1422 -54 2555 -287 3295 -676 191 -101 412 -263 470 -344 l23 -32 -74
-72 c-295 -289 -940 -597 -1739 -831 -955 -280 -2051 -449 -3270 -505 -223
-10 -1238 -15 -1315 -6 -22 3 -110 8 -195 11 -713 27 -1588 141 -2259 296
-760 175 -1349 411 -1573 630 -33 32 -58 64 -56 71 14 40 272 206 523 334
1239 637 3191 1069 5060 1120 126 4 232 8 234 10 9 7 632 3 876 -6z m19830
-140 c230 -10 645 -35 740 -45 28 -3 122 -12 210 -21 1476 -143 2854 -489
3878 -973 231 -110 543 -293 651 -383 36 -30 30 -43 -53 -120 -374 -347 -1569
-695 -2871 -837 -646 -70 -1076 -92 -1769 -90 -616 2 -985 19 -1516 69 -1715
163 -3249 598 -3995 1134 -90 65 -240 204 -240 222 0 24 177 178 294 255 127
85 395 221 556 284 740 288 1694 458 2855 508 183 8 1063 6 1260 -3z m-13875
-1890 c1088 -61 1913 -273 2318 -596 40 -31 72 -61 72 -67 0 -46 -248 -288
-429 -418 -1131 -816 -3363 -1471 -5626 -1649 -662 -52 -1384 -59 -1990 -19
-884 57 -1656 212 -2070 415 -114 55 -238 141 -250 171 -14 39 235 244 511
421 885 569 2177 1070 3539 1371 873 193 1861 327 2725 370 245 12 988 12
1200 1z m7760 -136 c812 -23 1893 -157 2750 -340 1141 -244 2170 -594 3040
-1035 465 -235 875 -499 1103 -709 l68 -63 -33 -34 c-173 -180 -696 -354
-1388 -462 -916 -143 -2073 -161 -3215 -50 -1914 185 -3727 685 -4912 1355
-360 203 -701 471 -810 635 l-27 42 39 34 c395 339 1266 569 2360 623 358 18
548 18 1025 4z m-4093 -844 c76 -69 712 -643 1413 -1275 1224 -1105 1442
-1301 2105 -1900 164 -148 305 -275 312 -280 11 -8 -70 -105 -357 -430 -204
-231 -377 -420 -385 -420 -7 0 -375 445 -817 990 -1203 1482 -1491 1838 -2076
2558 l-534 658 44 52 c23 29 66 81 93 114 28 34 53 61 57 60 3 -1 69 -58 145
-127z m-553 8 c89 -79 103 -95 92 -108 -13 -15 -2643 -2925 -3265 -3613 -173
-191 -318 -347 -321 -347 -8 0 -833 729 -838 740 -1 3 53 51 120 106 112 91
492 399 2048 1665 294 239 814 662 1155 939 341 277 679 552 750 611 72 59
136 106 143 103 7 -2 59 -45 116 -96z"/>
</g>
</svg>
